HIERARCHY
ROOT mixamorig:Hips
{
	OFFSET -0.000008 104.274872 1.554316
	CHANNELS 6 Xposition Yposition Zposition Xrotation Yrotation Zrotation
	JOINT mixamorig:Spine
	{
		OFFSET -0.000005 10.181595 0.131519
		CHANNELS 6 Xposition Yposition Zposition Xrotation Yrotation Zrotation
		JOINT mixamorig:Spine1
		{
			OFFSET -0.000000 9.893959 -1.470707
			CHANNELS 6 Xposition Yposition Zposition Xrotation Yrotation Zrotation
			JOINT mixamorig:Spine2
			{
				OFFSET -0.000000 9.220757 -1.370641
				CHANNELS 6 Xposition Yposition Zposition Xrotation Yrotation Zrotation
				JOINT mixamorig:Neck
				{
					OFFSET 0.000001 16.740417 -2.049036
					CHANNELS 6 Xposition Yposition Zposition Xrotation Yrotation Zrotation
					JOINT mixamorig:Head
					{
						OFFSET 0.000000 9.617874 1.685006
						CHANNELS 6 Xposition Yposition Zposition Xrotation Yrotation Zrotation
						JOINT mixamorig:HeadTop_End
						{
							OFFSET 0.000002 22.037354 7.501101
							CHANNELS 6 Xposition Yposition Zposition Xrotation Yrotation Zrotation
							End Site
							{
								OFFSET 0.000168 2310.654297 -282.823242
							}
						}
					}
				}
				JOINT mixamorig:RightShoulder
				{
					OFFSET -4.569970 11.014908 -2.160885
					CHANNELS 6 Xposition Yposition Zposition Xrotation Yrotation Zrotation
					JOINT mixamorig:RightArm
					{
						OFFSET -10.592851 -0.524811 -2.232101
						CHANNELS 6 Xposition Yposition Zposition Xrotation Yrotation Zrotation
						JOINT mixamorig:RightForeArm
						{
							OFFSET -27.841511 0.000031 -0.000004
							CHANNELS 6 Xposition Yposition Zposition Xrotation Yrotation Zrotation
							JOINT mixamorig:RightHand
							{
								OFFSET -28.328831 -0.000015 0.000015
								CHANNELS 6 Xposition Yposition Zposition Xrotation Yrotation Zrotation
								JOINT mixamorig:RightHandThumb1
								{
									OFFSET -2.464806 -1.573990 2.681852
									CHANNELS 6 Xposition Yposition Zposition Xrotation Yrotation Zrotation
									JOINT mixamorig:RightHandThumb2
									{
										OFFSET -3.215179 -1.872803 1.924282
										CHANNELS 6 Xposition Yposition Zposition Xrotation Yrotation Zrotation
										JOINT mixamorig:RightHandThumb3
										{
											OFFSET -2.654831 -1.527969 1.512609
											CHANNELS 6 Xposition Yposition Zposition Xrotation Yrotation Zrotation
											JOINT mixamorig:RightHandThumb4
											{
												OFFSET -2.018814 -1.152008 1.108052
												CHANNELS 6 Xposition Yposition Zposition Xrotation Yrotation Zrotation
												End Site
												{
													OFFSET -188.809540 -114.533607 132.431396
												}
											}
										}
									}
								}
								JOINT mixamorig:RightHandIndex1
								{
									OFFSET -9.108284 -0.517868 2.259835
									CHANNELS 6 Xposition Yposition Zposition Xrotation Yrotation Zrotation
									JOINT mixamorig:RightHandIndex2
									{
										OFFSET -3.699989 0.000000 0.001215
										CHANNELS 6 Xposition Yposition Zposition Xrotation Yrotation Zrotation
										JOINT mixamorig:RightHandIndex3
										{
											OFFSET -2.850006 0.000031 -0.000522
											CHANNELS 6 Xposition Yposition Zposition Xrotation Yrotation Zrotation
											JOINT mixamorig:RightHandIndex4
											{
												OFFSET -2.772186 -0.000015 -0.000020
												CHANNELS 6 Xposition Yposition Zposition Xrotation Yrotation Zrotation
												End Site
												{
													OFFSET -277.218445 0.000000 -0.050231
												}
											}
										}
									}
								}
								JOINT mixamorig:RightHandMiddle1
								{
									OFFSET -9.532516 -0.000031 -0.000023
									CHANNELS 6 Xposition Yposition Zposition Xrotation Yrotation Zrotation
									JOINT mixamorig:RightHandMiddle2
									{
										OFFSET -3.700005 -0.000015 0.003713
										CHANNELS 6 Xposition Yposition Zposition Xrotation Yrotation Zrotation
										JOINT mixamorig:RightHandMiddle3
										{
											OFFSET -2.949974 0.000015 -0.002054
											CHANNELS 6 Xposition Yposition Zposition Xrotation Yrotation Zrotation
											JOINT mixamorig:RightHandMiddle4
											{
												OFFSET -2.946640 0.000000 -0.000156
												CHANNELS 6 Xposition Yposition Zposition Xrotation Yrotation Zrotation
												End Site
												{
													OFFSET -294.664337 0.000000 -0.113670
												}
											}
										}
									}
								}
								JOINT mixamorig:RightHandRing1
								{
									OFFSET -9.103600 -0.043076 -1.865134
									CHANNELS 6 Xposition Yposition Zposition Xrotation Yrotation Zrotation
									JOINT mixamorig:RightHandRing2
									{
										OFFSET -3.379288 0.000000 -0.001055
										CHANNELS 6 Xposition Yposition Zposition Xrotation Yrotation Zrotation
										JOINT mixamorig:RightHandRing3
										{
											OFFSET -2.889687 -0.000015 0.000379
											CHANNELS 6 Xposition Yposition Zposition Xrotation Yrotation Zrotation
											JOINT mixamorig:RightHandRing4
											{
												OFFSET -2.638809 -0.000015 0.000941
												CHANNELS 6 Xposition Yposition Zposition Xrotation Yrotation Zrotation
												End Site
												{
													OFFSET -263.880371 0.000000 0.516020
												}
											}
										}
									}
								}
								JOINT mixamorig:RightHandPinky1
								{
									OFFSET -8.076683 -0.486710 -3.806280
									CHANNELS 6 Xposition Yposition Zposition Xrotation Yrotation Zrotation
									JOINT mixamorig:RightHandPinky2
									{
										OFFSET -3.600014 -0.000015 -0.003747
										CHANNELS 6 Xposition Yposition Zposition Xrotation Yrotation Zrotation
										JOINT mixamorig:RightHandPinky3
										{
											OFFSET -2.099983 0.000000 -0.005739
											CHANNELS 6 Xposition Yposition Zposition Xrotation Yrotation Zrotation
											JOINT mixamorig:RightHandPinky4
											{
												OFFSET -2.115768 -0.000031 -0.003680
												CHANNELS 6 Xposition Yposition Zposition Xrotation Yrotation Zrotation
												End Site
												{
													OFFSET -211.577087 0.000000 -0.350686
												}
											}
										}
									}
								}
							}
						}
					}
				}
				JOINT mixamorig:LeftShoulder
				{
					OFFSET 4.570447 11.014725 -2.160855
					CHANNELS 6 Xposition Yposition Zposition Xrotation Yrotation Zrotation
					JOINT mixamorig:LeftArm
					{
						OFFSET 10.592371 -0.524597 -2.232119
						CHANNELS 6 Xposition Yposition Zposition Xrotation Yrotation Zrotation
						JOINT mixamorig:LeftForeArm
						{
							OFFSET 27.841532 -0.000031 0.000026
							CHANNELS 6 Xposition Yposition Zposition Xrotation Yrotation Zrotation
							JOINT mixamorig:LeftHand
							{
								OFFSET 28.328846 -0.000061 0.000022
								CHANNELS 6 Xposition Yposition Zposition Xrotation Yrotation Zrotation
								JOINT mixamorig:LeftHandThumb1
								{
									OFFSET 2.466141 -1.576172 2.681732
									CHANNELS 6 Xposition Yposition Zposition Xrotation Yrotation Zrotation
									JOINT mixamorig:LeftHandThumb2
									{
										OFFSET 3.217812 -1.872070 1.916482
										CHANNELS 6 Xposition Yposition Zposition Xrotation Yrotation Zrotation
										JOINT mixamorig:LeftHandThumb3
										{
											OFFSET 2.656029 -1.528778 1.514513
											CHANNELS 6 Xposition Yposition Zposition Xrotation Yrotation Zrotation
											JOINT mixamorig:LeftHandThumb4
											{
												OFFSET 2.020889 -1.154053 1.115139
												CHANNELS 6 Xposition Yposition Zposition Xrotation Yrotation Zrotation
												End Site
												{
													OFFSET 190.885437 -115.081749 130.048782
												}
											}
										}
									}
								}
								JOINT mixamorig:LeftHandIndex1
								{
									OFFSET 9.109314 -0.518021 2.259871
									CHANNELS 6 Xposition Yposition Zposition Xrotation Yrotation Zrotation
									JOINT mixamorig:LeftHandIndex2
									{
										OFFSET 3.699989 0.000000 -0.000322
										CHANNELS 6 Xposition Yposition Zposition Xrotation Yrotation Zrotation
										JOINT mixamorig:LeftHandIndex3
										{
											OFFSET 2.850006 0.000000 0.000352
											CHANNELS 6 Xposition Yposition Zposition Xrotation Yrotation Zrotation
											JOINT mixamorig:LeftHandIndex4
											{
												OFFSET 2.774864 -0.000031 -0.000027
												CHANNELS 6 Xposition Yposition Zposition Xrotation Yrotation Zrotation
												End Site
												{
													OFFSET 277.486267 0.000000 -0.009857
												}
											}
										}
									}
								}
								JOINT mixamorig:LeftHandMiddle1
								{
									OFFSET 9.533394 0.000061 0.000044
									CHANNELS 6 Xposition Yposition Zposition Xrotation Yrotation Zrotation
									JOINT mixamorig:LeftHandMiddle2
									{
										OFFSET 3.699989 -0.000015 -0.000231
										CHANNELS 6 Xposition Yposition Zposition Xrotation Yrotation Zrotation
										JOINT mixamorig:LeftHandMiddle3
										{
											OFFSET 2.949997 -0.000015 -0.000059
											CHANNELS 6 Xposition Yposition Zposition Xrotation Yrotation Zrotation
											JOINT mixamorig:LeftHandMiddle4
											{
												OFFSET 2.952896 0.000031 0.000063
												CHANNELS 6 Xposition Yposition Zposition Xrotation Yrotation Zrotation
												End Site
												{
													OFFSET 295.289337 0.000000 0.022810
												}
											}
										}
									}
								}
								JOINT mixamorig:LeftHandRing1
								{
									OFFSET 9.104523 -0.042999 -1.865074
									CHANNELS 6 Xposition Yposition Zposition Xrotation Yrotation Zrotation
									JOINT mixamorig:LeftHandRing2
									{
										OFFSET 3.150009 -0.000031 0.000043
										CHANNELS 6 Xposition Yposition Zposition Xrotation Yrotation Zrotation
										JOINT mixamorig:LeftHandRing3
										{
											OFFSET 2.949982 -0.000015 0.000040
											CHANNELS 6 Xposition Yposition Zposition Xrotation Yrotation Zrotation
											JOINT mixamorig:LeftHandRing4
											{
												OFFSET 2.644348 0.000000 0.000057
												CHANNELS 6 Xposition Yposition Zposition Xrotation Yrotation Zrotation
												End Site
												{
													OFFSET 264.434631 0.000000 0.012105
												}
											}
										}
									}
								}
								JOINT mixamorig:LeftHandPinky1
								{
									OFFSET 8.077789 -0.486847 -3.806259
									CHANNELS 6 Xposition Yposition Zposition Xrotation Yrotation Zrotation
									JOINT mixamorig:LeftHandPinky2
									{
										OFFSET 3.599953 0.000031 0.014727
										CHANNELS 6 Xposition Yposition Zposition Xrotation Yrotation Zrotation
										JOINT mixamorig:LeftHandPinky3
										{
											OFFSET 2.100021 0.000015 0.007705
											CHANNELS 6 Xposition Yposition Zposition Xrotation Yrotation Zrotation
											JOINT mixamorig:LeftHandPinky4
											{
												OFFSET 2.125504 0.000031 0.007517
												CHANNELS 6 Xposition Yposition Zposition Xrotation Yrotation Zrotation
												End Site
												{
													OFFSET 212.550781 0.000000 0.625752
												}
											}
										}
									}
								}
							}
						}
					}
				}
			}
		}
	}
	JOINT mixamorig:RightUpLeg
	{
		OFFSET -8.207787 -6.751648 -1.599560
		CHANNELS 6 Xposition Yposition Zposition Xrotation Yrotation Zrotation
		JOINT mixamorig:RightLeg
		{
			OFFSET -0.000002 -44.370117 0.345942
			CHANNELS 6 Xposition Yposition Zposition Xrotation Yrotation Zrotation
			JOINT mixamorig:RightFoot
			{
				OFFSET 0.000003 -44.423679 -3.043532
				CHANNELS 6 Xposition Yposition Zposition Xrotation Yrotation Zrotation
				JOINT mixamorig:RightToeBase
				{
					OFFSET -0.000002 -8.728671 10.710558
					CHANNELS 6 Xposition Yposition Zposition Xrotation Yrotation Zrotation
					JOINT mixamorig:RightToe_End
					{
						OFFSET -0.000001 -0.000679 9.278119
						CHANNELS 6 Xposition Yposition Zposition Xrotation Yrotation Zrotation
						End Site
						{
							OFFSET 0.000000 -0.067690 927.812134
						}
					}
				}
			}
		}
	}
	JOINT mixamorig:LeftUpLeg
	{
		OFFSET 8.207793 -6.751686 -1.599556
		CHANNELS 6 Xposition Yposition Zposition Xrotation Yrotation Zrotation
		JOINT mixamorig:LeftLeg
		{
			OFFSET -0.000004 -44.370014 0.346954
			CHANNELS 6 Xposition Yposition Zposition Xrotation Yrotation Zrotation
			JOINT mixamorig:LeftFoot
			{
				OFFSET -0.000001 -44.423672 -3.044401
				CHANNELS 6 Xposition Yposition Zposition Xrotation Yrotation Zrotation
				JOINT mixamorig:LeftToeBase
				{
					OFFSET -0.000002 -8.728669 10.710558
					CHANNELS 6 Xposition Yposition Zposition Xrotation Yrotation Zrotation
					JOINT mixamorig:LeftToe_End
					{
						OFFSET -0.000003 -0.000679 9.278133
						CHANNELS 6 Xposition Yposition Zposition Xrotation Yrotation Zrotation
						End Site
						{
							OFFSET 0.000000 -0.068021 927.813477
						}
					}
				}
			}
		}
	}
}
MOTION
Frames: 3
Frame Time: 0.033333
0.000006 104.270477 1.554256 0.000010 0.000003 -0.000113 -0.000005 10.181587 0.131522 0.000001 -0.000003 0.000084 -0.000000 9.893967 -1.470711 0.000001 0.000000 -0.000000 -0.000000 9.220802 -1.370642 0.000000 -0.000000 -0.000000 0.000001 16.740433 -2.049030 0.000000 -0.000000 -0.000000 0.000000 9.617859 1.685014 0.000000 0.000000 0.000000 0.000002 22.037384 7.501101 0.000000 -0.000000 0.000000 -4.569968 11.014880 -2.160881 0.000008 0.000001 -0.000038 -10.592876 -0.524757 -2.231923 75.348379 27.275544 -21.222299 -27.841522 0.000013 0.000541 -57.600829 109.064365 75.311599 -28.328846 0.000008 0.000021 -0.000321 -0.000046 0.000008 -2.464508 -1.573665 2.682302 -53.254691 176.346619 -31.291105 -3.215271 -1.872654 1.924713 157.990021 26.871882 -23.285054 -2.654941 -1.527911 1.513118 146.986996 25.820350 -48.369361 -2.018827 -1.152000 1.108074 -0.000004 -0.000002 0.000005 -9.108405 -0.517558 2.260082 91.132243 17.091683 -17.475562 -3.700081 0.000321 0.001471 87.014247 13.595678 -12.888563 -2.850078 0.000355 -0.000310 85.225967 11.428063 -10.517917 -2.772145 -0.000013 -0.000020 0.000001 -0.000002 0.000002 -9.532601 0.000259 0.000137 76.554509 14.565684 -11.629277 -3.700075 0.000312 0.003877 74.876161 10.698550 -8.128804 -2.950054 0.000317 -0.001899 74.311809 11.063970 -8.390293 -2.946624 -0.000015 -0.000156 -0.000000 -0.000001 -0.000000 -9.103714 -0.042773 -1.864959 73.185163 17.259159 -12.823977 -3.379317 0.000295 -0.000901 74.089009 9.773743 -7.397887 -2.889747 0.000323 0.000544 77.423910 7.245880 -5.847098 -2.638811 -0.000016 0.000941 0.000002 -0.000003 0.000001 -8.076756 -0.486410 -3.806138 61.512363 15.512845 -9.175993 -3.600042 0.000218 -0.003635 63.321591 7.813742 -4.602054 -2.100021 0.000276 -0.005592 66.628215 5.927566 -3.751486 -2.115783 -0.000041 -0.003680 0.000002 -0.000001 -0.000003 4.570446 11.014691 -2.160851 -0.000018 0.000010 -0.000021 10.592401 -0.524470 -2.232350 75.749079 -12.676263 9.875158 27.841833 0.000090 -0.000217 109.062992 -69.747597 88.737203 28.328842 -0.000029 0.000021 0.000022 -0.000089 -0.000001 2.465959 -1.576130 2.681919 -45.001043 170.867004 1.331241 3.217852 -1.871843 1.916393 155.012905 -25.698973 31.408167 2.656088 -1.528653 1.514478 134.480442 -29.302499 49.378897 2.020902 -1.154085 1.115141 -0.000004 0.000003 0.000004 9.109385 -0.517893 2.259736 72.649799 -16.921505 12.473658 3.700041 0.000111 -0.000456 71.640871 -16.008871 11.603571 2.850045 0.000130 0.000213 68.461486 -13.960465 9.522839 2.774890 -0.000014 -0.000028 -0.000001 0.000000 -0.000001 9.533476 0.000182 -0.000088 71.127213 -16.549620 11.866249 3.700047 0.000143 -0.000371 73.047985 -15.047378 11.171099 2.950075 0.000111 -0.000186 69.530964 -18.226097 12.708848 2.952856 -0.000034 0.000060 0.000001 -0.000000 0.000001 9.104582 -0.042887 -1.865231 70.717771 -15.548876 11.068315 3.150047 0.000172 -0.000100 74.001405 -14.575496 11.010756 2.950033 0.000102 -0.000066 72.556184 -16.248713 11.964607 2.644323 0.000047 0.000057 -0.000003 -0.000002 -0.000002 8.077848 -0.486774 -3.806378 58.687034 -17.681982 10.346401 3.600000 0.000118 0.014584 59.130894 -14.749553 8.704778 2.100038 0.000113 0.007556 61.095052 -13.953153 8.562422 2.125503 -0.000017 0.007518 0.000000 0.000001 0.000000 -8.207786 -6.751667 -1.599560 -0.077001 -0.000003 0.000080 -0.000002 -44.370110 0.345938 0.153719 -0.000000 -0.000000 0.000000 -44.423679 -3.043532 -0.076700 0.000000 -0.000002 -0.000006 -8.728667 10.710559 -0.000009 -0.000000 -0.000000 -0.000001 -0.000679 9.278123 0.000000 -0.000000 -0.000000 8.207792 -6.751710 -1.599556 -0.074518 -0.000003 0.000081 -0.000002 -44.370014 0.346960 0.148822 0.000002 0.000000 -0.000001 -44.423664 -3.044403 -0.074314 0.000000 -0.000002 -0.000004 -8.728671 10.710558 0.000007 -0.000000 -0.000000 0.000000 -0.000680 9.278137 -0.000000 0.000000 -0.000001 
0.000006 104.270477 1.554256 0.000010 0.000003 -0.000113 -0.000005 10.181587 0.131522 0.000001 -0.000003 0.000084 -0.000000 9.893967 -1.470711 0.000001 0.000000 -0.000000 -0.000000 9.220802 -1.370642 0.000000 -0.000000 -0.000000 0.000001 16.740433 -2.049030 0.000000 -0.000000 -0.000000 0.000000 9.617859 1.685014 0.000000 0.000000 0.000000 0.000002 22.037384 7.501101 0.000000 -0.000000 0.000000 -4.569968 11.014880 -2.160881 0.000008 0.000001 -0.000038 -10.592875 -0.524750 -2.231923 75.634619 26.433030 -20.661326 -27.841526 0.000009 0.000538 -56.431884 108.009231 72.901143 -28.328836 0.000020 0.000023 -0.000320 -0.000046 0.000010 -2.464544 -1.573622 2.682262 -55.619791 170.706426 -48.533405 -3.215290 -1.872637 1.924652 150.019231 28.584050 -15.309206 -2.654968 -1.527861 1.513073 138.874835 28.550631 -36.065506 -2.018838 -1.152014 1.108056 -0.000003 -0.000001 0.000004 -9.108374 -0.517535 2.260075 90.389952 12.037919 -12.164473 -3.700046 0.000340 0.001444 87.089474 9.288690 -8.809045 -2.850057 0.000373 -0.000315 85.774328 8.283742 -7.695280 -2.772174 -0.000001 -0.000023 -0.000002 -0.000001 -0.000002 -9.532578 0.000270 0.000136 76.779277 11.872785 -9.528189 -3.700054 0.000316 0.003893 76.679044 10.298282 -8.078992 -2.950049 0.000304 -0.001872 78.278223 10.777310 -8.773673 -2.946627 0.000001 -0.000155 0.000000 0.000001 0.000001 -9.103700 -0.042774 -1.864959 73.213310 16.267108 -12.086853 -3.379325 0.000292 -0.000887 75.399052 11.516537 -8.926756 -2.889756 0.000328 0.000569 80.207198 8.526456 -7.224010 -2.638802 0.000001 0.000945 0.000001 0.000000 0.000000 -8.076748 -0.486410 -3.806118 63.467791 17.051164 -10.496231 -3.600046 0.000213 -0.003644 61.616195 10.832490 -6.247612 -2.100023 0.000266 -0.005597 64.863650 7.493818 -4.620465 -2.115768 -0.000041 -0.003678 -0.000001 0.000002 -0.000003 4.570446 11.014691 -2.160851 -0.000018 0.000010 -0.000021 10.592388 -0.524484 -2.232331 75.107520 -7.903478 6.080386 27.841835 0.000078 -0.000214 110.029321 -70.603952 90.672831 28.328840 -0.000028 0.000019 0.000022 -0.000089 -0.000000 2.465924 -1.576104 2.681919 -47.892573 178.796089 9.352671 3.217875 -1.871859 1.916415 157.162748 -23.471440 40.847424 2.656098 -1.528682 1.514472 133.735268 -29.602071 56.597307 2.020883 -1.154050 1.115150 0.000001 0.000005 0.000006 9.109388 -0.517888 2.259738 75.357197 -18.349240 14.209952 3.700020 0.000122 -0.000473 73.295989 -11.736769 8.757949 2.850044 0.000157 0.000195 71.895111 -9.916048 7.198157 2.774867 -0.000032 -0.000035 0.000002 -0.000001 -0.000001 9.533474 0.000182 -0.000090 72.601530 -17.975396 13.247781 3.700031 0.000132 -0.000378 74.506599 -11.646897 8.868386 2.950055 0.000129 -0.000195 74.658291 -12.056135 9.210462 2.952859 -0.000031 0.000062 0.000002 -0.000002 -0.000000 9.104601 -0.042903 -1.865217 70.775506 -17.993867 12.835403 3.150032 0.000163 -0.000087 75.017163 -12.976888 9.979543 2.949995 0.000150 -0.000085 75.952564 -11.531877 9.015263 2.644307 0.000016 0.000060 0.000001 0.000004 0.000001 8.077845 -0.486772 -3.806390 60.012303 -19.650374 11.791131 3.600019 0.000105 0.014596 59.436299 -17.099886 10.127260 2.100020 0.000115 0.007567 62.061797 -13.392573 8.384430 2.125499 -0.000042 0.007509 0.000002 0.000002 -0.000001 -8.207786 -6.751667 -1.599560 -0.077001 -0.000003 0.000080 -0.000002 -44.370110 0.345938 0.153719 -0.000000 -0.000000 0.000000 -44.423679 -3.043532 -0.076700 0.000000 -0.000002 -0.000006 -8.728667 10.710559 -0.000009 -0.000000 -0.000000 -0.000001 -0.000679 9.278123 0.000000 -0.000000 -0.000000 8.207792 -6.751710 -1.599556 -0.074518 -0.000003 0.000081 -0.000002 -44.370014 0.346960 0.148822 0.000002 0.000000 -0.000001 -44.423664 -3.044403 -0.074314 0.000000 -0.000002 -0.000004 -8.728671 10.710558 0.000007 -0.000000 -0.000000 0.000000 -0.000680 9.278137 -0.000000 0.000000 -0.000001 
0.000006 104.270477 1.554256 0.000010 0.000003 -0.000113 -0.000005 10.181587 0.131522 0.000001 -0.000003 0.000084 -0.000000 9.893967 -1.470711 0.000001 0.000000 -0.000000 -0.000000 9.220802 -1.370642 0.000000 -0.000000 -0.000000 0.000001 16.740433 -2.049030 0.000000 -0.000000 -0.000000 0.000000 9.617859 1.685014 0.000000 0.000000 0.000000 0.000002 22.037384 7.501101 0.000000 -0.000000 0.000000 -4.569968 11.014880 -2.160881 0.000008 0.000001 -0.000038 -10.592867 -0.524786 -2.231884 75.262736 33.867442 -26.420475 -27.841520 -0.000002 0.000548 -54.476718 104.992903 67.706108 -28.328835 0.000023 0.000030 -0.000318 -0.000043 0.000006 -2.464424 -1.573784 2.682368 -45.794543 194.380640 -4.143550 -3.215292 -1.872633 1.924675 155.254489 28.497004 -15.180869 -2.654942 -1.527882 1.513082 143.335112 27.412110 -40.740992 -2.018816 -1.152002 1.108059 0.000000 -0.000006 0.000001 -9.108370 -0.517553 2.260101 91.231151 14.738046 -15.101487 -3.700058 0.000301 0.001464 88.230294 12.108062 -11.719852 -2.850080 0.000368 -0.000298 85.638394 9.766477 -9.052189 -2.772170 -0.000000 -0.000020 -0.000003 0.000000 -0.000001 -9.532571 0.000271 0.000175 79.488895 13.193718 -11.101715 -3.700083 0.000320 0.003903 79.675284 10.977006 -9.088045 -2.950063 0.000324 -0.001874 79.134927 10.866495 -8.981844 -2.946631 0.000015 -0.000156 0.000001 0.000000 -0.000000 -9.103695 -0.042767 -1.864919 77.351715 16.600269 -13.285218 -3.379332 0.000303 -0.000866 79.778741 11.896405 -9.968932 -2.889750 0.000330 0.000571 82.875282 8.483217 -7.533009 -2.638816 -0.000028 0.000940 -0.000003 -0.000000 -0.000000 -8.076750 -0.486412 -3.806114 66.687631 16.877251 -11.048270 -3.600029 0.000225 -0.003619 64.288951 10.985220 -6.679896 -2.100014 0.000276 -0.005587 67.707324 7.592676 -4.944245 -2.115774 -0.000056 -0.003681 0.000000 0.000002 -0.000004 4.570446 11.014691 -2.160851 -0.000018 0.000010 -0.000021 10.592419 -0.524467 -2.232369 73.466246 -18.999508 14.236670 27.841837 0.000067 -0.000205 112.741220 -73.245105 96.351129 28.328846 -0.000028 0.000015 0.000020 -0.000087 0.000000 2.465863 -1.576056 2.681911 -51.922500 187.264458 28.556901 3.217875 -1.871855 1.916407 155.677510 -23.471667 42.689352 2.656099 -1.528689 1.514492 134.636416 -29.279935 55.914941 2.020887 -1.154079 1.115151 -0.000001 0.000007 0.000004 9.109363 -0.517880 2.259737 81.414776 -17.974900 15.486863 3.700052 0.000144 -0.000470 80.593835 -12.127167 10.308524 2.850054 0.000173 0.000202 79.131081 -9.775179 8.082008 2.774893 -0.000030 -0.000025 0.000001 -0.000000 0.000001 9.533457 0.000178 -0.000079 78.197265 -18.025262 14.681620 3.700017 0.000172 -0.000377 80.507385 -12.124473 10.274033 2.950065 0.000160 -0.000218 80.903256 -11.980472 10.227472 2.952873 -0.000046 0.000063 -0.000000 0.000002 -0.000000 9.104565 -0.042878 -1.865210 76.989954 -17.990793 14.352780 3.150074 0.000155 -0.000103 81.504702 -13.742762 11.858713 2.950006 0.000168 -0.000087 82.994380 -11.814680 10.461324 2.644311 0.000015 0.000059 -0.000000 -0.000002 -0.000000 8.077817 -0.486766 -3.806377 67.559143 -19.883550 13.793541 3.599997 0.000119 0.014586 67.291311 -18.013214 12.410384 2.100024 0.000137 0.007543 69.758471 -13.798854 9.991938 2.125493 -0.000000 0.007517 -0.000002 -0.000000 0.000001 -8.207786 -6.751667 -1.599560 -0.077001 -0.000003 0.000080 -0.000002 -44.370110 0.345938 0.153719 -0.000000 -0.000000 0.000000 -44.423679 -3.043532 -0.076700 0.000000 -0.000002 -0.000006 -8.728667 10.710559 -0.000009 -0.000000 -0.000000 -0.000001 -0.000679 9.278123 0.000000 -0.000000 -0.000000 8.207792 -6.751710 -1.599556 -0.074518 -0.000003 0.000081 -0.000002 -44.370014 0.346960 0.148822 0.000002 0.000000 -0.000001 -44.423664 -3.044403 -0.074314 0.000000 -0.000002 -0.000004 -8.728671 10.710558 0.000007 -0.000000 -0.000000 0.000000 -0.000680 9.278137 -0.000000 0.000000 -0.000001 
